/* XPM */
static char *_a315cccf0214edbfd8d91b5fb0176a20nKXYKeyQFndrS9O[] = {
/* columns rows colors chars-per-pixel */
"40 40 26 1 ",
"  c black",
". c #761919",
"X c #0B5813",
"o c #0D6A17",
"O c #136A13",
"+ c #136A1C",
"@ c #137B13",
"# c #951A27",
"$ c #9E2121",
"% c #AC3232",
"& c #C11426",
"* c #C13342",
"= c #C13645",
"- c #D34A4A",
"; c #EB5F5F",
": c #1C841C",
"> c #349E03",
", c #39A31D",
"< c #219E21",
"1 c #29A529",
"2 c #41951A",
"3 c #47B016",
"4 c #4DB01F",
"5 c #DED737",
"6 c #99E550",
"7 c white",
/* pixels */
"1111111111111111111111111111111111111111",
"1111511111111111111111111111511111111111",
"1151111111111111111117111111115111111111",
"1115111111111111111171111115111111111111",
"1111111116111111111111711111111111111111",
"1111116116116111111111111111111111111111",
"1111111616161161,,,,11111111111111111111",
"1111111166611611111111111111111111117111",
"1111111111111111111111111111111111171711",
"1111111111111111111111111111611111111111",
"1111111111111111111111111611616111111111",
"1,,1111111111111111111111161661111111111",
"1111111111111111111111116666666111111111",
"1111111111117111111111111111111111111111",
"1111111111711111111111111111111111111111",
"1111111111111711111111111111111111111111",
"111   11111 1           1111111    11111",
"1  O: 1 11 : XX+++++XXX 111    4444    1",
" :: :@ :  @ XX+++++X+++X   44444444444  ",
"@ :::::::O: Xo++#=+++++++ 44444>44444444",
"@ ::::::::: o+++&&++++&#+X 444>344#&44>4",
":@::&*::::: ++++++++++&=++ 4444444&&4>>4",
"::::&#::#&: ++++++++++++++ 4&=4444444444",
"::::::::=&: X++++++##+++++ 4*&44444444&4",
"::.:::::::: X++++.+&&+++++ 2444>.4444444",
":$;.:::.::O .X++.-.+++.++X .244$%.444.44",
":$%.:@$-.OO$%.++.-.++$%.XX$-.44$%.44$;.4",
" .%.  $-.O $%.  .%.++$%.  $%.24.%.44$-. ",
"----------------------------------------",
"----------------------------------------",
"%%%%%%%%%%%%%%%%%%%%%%%%%%%%%%%%%%%%%%%%",
" .%.  .%.<<.%.++.%.  .%.XX.%.  .%. 4.%.4",
"<...<<...<<...<<...<<...<<...<<...<<...<",
"1111111111111111111111111111111111111111",
"1111111111111111111111111111111111111111",
"1111116111111111111111111111711111111111",
"1116166111111111111111111111111111111111",
"11116666,,111111111111111117,71111111111",
"1111111111111111111111111111111111111111",
"1111111111111111111111111111111111111111"
};
