/* XPM */
static char *e51246b9028f485a8c643b315033b02av6Op7GEBQBLjhXe1[] = {
/* columns rows colors chars-per-pixel */
"40 40 14 1 ",
"  c black",
". c #502D5E",
"X c #633574",
"o c #D33041",
"O c #39A31D",
"+ c #29A529",
"@ c #DED737",
"# c #FBF236",
"$ c #99E550",
"% c #3D5EDB",
"& c #8D70A8",
"* c #639BFF",
"= c #E9B4CA",
"- c white",
/* pixels */
"++++++++++++++++++++++++++++++++++++++++",
"++++@+++++++++++++++++++++++@+++++++++++",
"++@++++++++++++++++++-++++++++@+++++++++",
"+++@++++++++++++++++-++++++@++++++++++++",
"+++++++++$++++++++++++-+++++++++++++++++",
"++++++$++$++$+++++++++++++++++++++++++++",
"+++++++$+$+$++$+OOOO+++  ++   ++++++++++",
"++++++++$$$+   +++++++ oo  --- +++++-+++",
"++++++++++++ --  +    ooo   -- ++++-+-++",
"+++++++++++ ----- --- o   o    +++++++++",
"+++++++++++ --------- oo ooo oo ++++++++",
"+OO++++++++ ----------    o   o ++++++++",
"+++++++++++  ------------   ooo ++++++++",
"+++++++++++ ----------------   +++++++++",
"++++++++++ -------------------- ++++++++",
"++++++++++ -------------------- ++++++++",
"++++++++++ -------------------- +$++++++",
"++++++$++   ---  --------  ---   +++++++",
"+++$++$++$ ----  --------  ---- $$++++++",
"++++$+$+$+  ---  --------  ---  ++++++++",
"+++++$$$$  --==-----##-----==--  +++++++",
"+++++++++++ ------------------ +++++++++",
"++++*++++++  ----------------  +++++++++",
"+++++*++++ ++  ------------  ++ +OO+++++",
"+*++*+++++++++              ++++++++++-+",
"++*++++++++++ o %% oooo %% o +++++++-+++",
"++++  ++++++ o % %%    %% % o +++++++-++",
"+++ X +++++  o  - %%%%%% -  o  +++++++++",
"++ X& ++   --  % %%%%%%%% %  -- ++++++++",
"+++  & + . -- %%%%%%%%%%%%%% -- ++++++++",
"+*++  & &  -- %%%%%%%%%%%%%% -- ++++++++",
"+*+++   &&&   %%%%%%%%%%%%%%   +++++++++",
"++-+-+  &&&&   %%%%%  %%%%%  +++++++++++",
"+++++++ &&&&  -            - +++++++++++",
"+++-++++    + ------  ------ +++++++++++",
"++++++++++++++      ++      ++++++++++++",
"++++++++++++++++++++++++++++++++++++++++",
"++++++++OO+++++++++++++++++OOO++++++++++",
"++++++++++++++++++++++++++++++++++++++++",
"++++++++++++++++++++++++++++++++++++++++"
};
