/* XPM */
static char *_5ee12318be84f01f9f06e515c108d96IaljoHNHx7ikmC6L[] = {
/* columns rows colors chars-per-pixel */
"40 40 11 1 ",
"  c black",
". c #643775",
"X c #D33041",
"o c #39A31D",
"O c #29A529",
"+ c #DED737",
"@ c #99E550",
"# c #76428A",
"$ c #3D5EDB",
"% c #8D70A8",
"& c white",
/* pixels */
"OOOOOOOOOOOOOOOOOOOOOOOOOOOOOOOOOOOOOOOO",
"OOOO+OOOOOOOOOOOOOOOOOOOOOOO+OOOOOOOOOOO",
"OO+OOOOOOOOOOOOOOOOOO&OOOOOOOO+OOOOOOOOO",
"OOO+OOOOOOOOOOOOOOOO&OOOOOO+OOOOOOOOOOOO",
"OOOOOOOOO@OOOOOOOOOOOO&OOOOOOOOOOOOOOOOO",
"OOOOOO@OO@OO@OOOOOOOOOOOOOOOOOOOOOOOOOOO",
"OOOOOOO@O@O@OO@Oo  oOOOOOOOOOOOOOOOOOOOO",
"OOOOOOOO@@@O   O XX OOOOOOO   OOOOOO&OOO",
"OOOOOOOOOOOO &&  X      O  && OOOOO&O&OO",
"OOOOOOOOOOO  &&&& &&&&&& &&&&& OOOOOOOOO",
"OOOOOOOOOO  &&&&&&&&&&&&&&&&&& OOOOOOOOO",
"OooOOOOOOO  &&&&&&&&&&&&&&&&&& OOOOOOOOO",
"OOOOOOOOOO  &&&&&&&&&&&&&&&&&& OOOOOOOOO",
"OOOOOOOOOOO &&&&&&&&&&&&&&&&&& OOOOOOOOO",
"OOOOOOOOOO &&&&&&&&&&&&&&&&&&&& OOOOOOOO",
"OOOOOOOOOO &&&&&&&&&&&&&&&&&&&& OOOOOOOO",
"OOOOOOOOOO &&&&&&&&&&&&&&&&&&&& O@OOOOOO",
"OOOOOO@OO   &&&&&&&&&&&&&&&&&&   OOOOOOO",
"OOO@OO@OO@ &&&&&&&&&&&&&&&&&&&& @@OOOOOO",
"OOOO@O@O@O  &&&&&&&&&&&&&&&&&&  OOOOOOOO",
"OOOOO@@@@  &&&&&&&&&&&&&&&&&&&&  OOOOOOO",
"OOOOOOOOOOO &&&&&&&&&&&&&&&&&& OOOOOOOOO",
"OOOOOOOOOOO  &&&&&&&&&&&&&&&&  OOOOOOOOO",
"OOOOOOOOOO OO  &&&&&&&&&&&&  OO OooOOOOO",
"OOOOOOOOOOOOOO              OOOOOOOOOO&O",
"OOOOOOOOOOOOO X $$ XXXX $$ X OOOOOOO&OOO",
"OOOOOOOOOOOO X $$$$    $$$$ X OOOOOO  OO",
"OOOOOOOOOOO  X $$$$$$$$$$$$ X  OOOOO # O",
"OOOOOOOOOO &&  $$$$$$$$$$$$  &&   OO %# ",
"OOOOOOOOOO && $$$$$$  $$$$$$ && . O %  O",
"OOOOOOOOOO && $$$$$ && $$$$$ && %% %  OO",
"OOOOOOOOOO    $$$$$ && $$$$$   %%%   OOO",
"OO&O&OOOOOOO   $$$$$  $$$$$   %%%%  OOOO",
"OOOOOOOOOOOO  &            &  %%%% OOOOO",
"OOO&OOOOOOOOO &&&&&&  &&&&&& O    OOOOOO",
"OOOOOOOOOOOOOO      OO      OOOOOOOOOOOO",
"OOOOOOOOOOOOOOOOOOOOOOOOOOOOOOOOOOOOOOOO",
"OOOOOOOOooOOOOOOOOOOOOOOOOOoooOOOOOOOOOO",
"OOOOOOOOOOOOOOOOOOOOOOOOOOOOOOOOOOOOOOOO",
"OOOOOOOOOOOOOOOOOOOOOOOOOOOOOOOOOOOOOOOO"
};
