/* XPM */
static char *_ced5e08ecaf4773a7bbb37013e7641e[] = {
/* columns rows colors chars-per-pixel */
"40 40 14 1 ",
"  c black",
". c #351C3E",
"X c #222034",
"o c #633574",
"O c #D33041",
"+ c #39A31D",
"@ c #29A529",
"# c #DED737",
"$ c #FBF236",
"% c #99E550",
"& c #3D5EDB",
"* c #8D70A8",
"= c #E9B4CA",
"- c white",
/* pixels */
"@@@@@@@@@@@@@@@@@@@@@@@@@@@@@@@@@@@@@@@@",
"@@@@#@@@@@@@@@@@@@@@@@@@@@@@#@@@@@@@@@@@",
"@@#@@@@@@@@@@@@@@@@@@-@@@@@@@@#@@@@@@@@@",
"@@@#@@@@@@@@@@@@@@@@-@@@@@@#@@@@@@@@@@@@",
"@@@@@@@@@%@@@@@@@@@@@@-@@@@@@@@@@@@@@@@@",
"@@@@@@%@@%@@%@@@@@@@@@@@@@@@@@@@@@@@@@@@",
"@@@@@@@%@%@%@@%@++++@   @@@@@@@@@@@@@@@@",
"@@@@@@@@%%%@  @@@@@@ OOO @@@@@@@@@@@-@@@",
"@@@@@@@@@@@@ - @         @@@@@@@@@@-@-@@",
"@@@@@@@@@@@ --- -------  @@@@@@@@@@@@@@@",
"@@@@@@@@@@@ ---- -------  @@@@@@@@@@@@@@",
"@++@@@@@@@@ -------------- @@@@@@@@@@@@@",
"@@@@@@@@@  ---------------- @@@@@@@@@@@@",
"@@@@@@@@@ -----------------  @@@@@@@@@@@",
"@@@@@@@@ -------------------- @@@@@@@@@@",
"@@@@@@@@ -------------------- %@@@@@@@@@",
"@@@@@@@@ -------------------- %@@%@@@@@@",
"@@@@@@%@ --------XXX---  ---- %@%@@@@@@@",
"@@@%@@%@ -------X------  ---- %%%%@@@@@@",
"@@@@%@%@ ---------XX---  ---- @@@@@@@@@@",
"@@@@@%%% -------- ---===----$ @@@@@@@@@@",
"@@@@@@@@@ ---------X-------- @@@@@@@@@@@",
"@@@@@@@@@  ------- --------  @@@@@@@@@@@",
"@@@@@@@@@@@  ------------  @@@@@@++@@@@@",
"@@@@@@@@@@@@              @@@@@@@@@@@@-@",
"@@@@@@@@@@@@@ &&& OO &&& @@@@@@@@@@@-@@@",
"@@@@@@@@@@@@ &&& OOOO &&& @@@@@@@@@@@-@@",
"@@@@@@@@@@@@ &&& OOOO &   @@@@@@@@@@@@@@",
"@@@@@@@@@@@  &&&      & o  @@@@@@@@@@@@@",
"@@@@@@@@@@  &&&  ---- & *o  @@@@@@@@@@@@",
"@@@@@@@@@ - &&&  ----  *    @@@@@@@@@@@@",
"@@@@@@@@@ - &&&  ---- * & @@@@@@@@@@@@@@",
"@@-@-@@@@@   && .    *    @@@@@@@@@@@@@@",
"@@@@@@@@@@@@     *****   @@@@@@@@@@@@@@@",
"@@@-@@@@@@@@@ -- ****  - @@@@@@@@@@@@@@@",
"@@@@@@@@@@@@@           @@@@@@@@@@@@@@@@",
"@@@@@@@@@@@@@@@@@@@@@@@@@@@@@@@@@@@@@@@@",
"@@@@@@@@++@@@@@@@@@@@@@@@@@+++@@@@@@@@@@",
"@@@@@@@@@@@@@@@@@@@@@@@@@@@@@@@@@@@@@@@@",
"@@@@@@@@@@@@@@@@@@@@@@@@@@@@@@@@@@@@@@@@"
};
