/* XPM */
static char *_ac0ad30e5aa4d9093af1259340b4490[] = {
/* columns rows colors chars-per-pixel */
"40 40 13 1 ",
"  c black",
". c #221029",
"X c #222034",
"o c #D33041",
"O c #39A31D",
"+ c #29A529",
"@ c #DED737",
"# c #FBF236",
"$ c #99E550",
"% c #3D5EDB",
"& c #639BFF",
"* c #E9B4CA",
"= c white",
/* pixels */
"++++++++++++++++++++++++++++++++++++++++",
"++++@+++++++++++++++++++++++@+++++++++++",
"++@++++++++++++++++++=++++++++@+++++++++",
"+++@++++++++++++++++=++++++@++++++++++++",
"+++++++++$++++++++++++=+++++++++++++++++",
"++++++$++$++$+++++++++++++++++++++++++++",
"+++++++$+$+$++$+   O++++++++++++++++++++",
"++++++++$$$++$+ === +++  +  ++++++++=+++",
"+++++++++++++++         o = +++++++=+=++",
"+++++++++++++++  ===== oo  = +++++++++++",
"++++++++++++++  ====== ooo = +++++++++++",
"+OO++++++++++ ======== ooo = +++++++++++",
"++++++++++++ =========  oo ==  +++++++++",
"+++++++++++  ==========   ==== +++++++++",
"++++++++++ ==================== ++++++++",
"++++++++++ ==================== ++++++++",
"++++++++++ ==================== +$++++++",
"++++++$+++ ====  ===XXX======== $+++++++",
"+++$++$++$ ====  ======X======= $$++++++",
"++++$+$+$+ ====  ===XX========= ++++++++",
"+++++$$$$$ #====***=== ======== ++++++++",
"+++++++++++ ========X========= +++++++++",
"+++++++++++  ======== =======  +++++++++",
"+++++++++++++  ============  ++++OO+++++",
"++++++++++++++              ++++++++++=+",
"+++++++++++++++ %%% oo %%% +++++++++=+++",
"++++++++++++++ %%% oooo %%% +++++++++=++",
"+++++++++&&+++ %%% oooo %%% ++++++++++++",
"+++++++++++++. %%%      %%%  +++++++++++",
"++++++++++++.. %%% ==== %%%%  ++++++++++",
"+++++++++&&++  %%% ==== %%%% = +++++++++",
"+++++++++++++  %%% ==== %%%% = +++++++++",
"++=+=++++++&+          %%%%   ++++++++++",
"++++++++++&++++             ++++++++++++",
"+++=+++++++++++ =  ======= +++++++++++++",
"++++++++++++++++           +++++++++++++",
"++++++++++++++++++++++++++++++++++++++++",
"++++++++OO+++++++++++++++++OOO++++++++++",
"++++++++++++++++++++++++++++++++++++++++",
"++++++++++++++++++++++++++++++++++++++++"
};
