/* XPM */
static char *_cd808d1d3bf420bc0ae27ccbab1c8c1iUb49xvyi6P4q0EN[] = {
/* columns rows colors chars-per-pixel */
"40 40 16 1 ",
"  c black",
". c #274611",
"X c #335819",
"o c #1C7B1C",
"O c #7B4329",
"+ c #843F1E",
"@ c #AC3232",
"# c #954D2A",
"$ c #8F563B",
"% c #39A31D",
"& c #29A529",
"* c #DED737",
"= c #99E550",
"- c #D3CD55",
"; c #EDE992",
": c white",
/* pixels */
"&&&&&&&&&&&&&&&&&&&&&&&&&&&&&&&&&&&&&&&&",
"&&&&*&&&&&  &&&  &&& &&&  &&*  &&&&&&&&&",
"&&*&&&&&& :: && : & : & : && :: &&&&&&&&",
"&&&*&&&&& :::  ::: ::: :::  ::: &&&&&&&&",
"&&&&&&&& ::::: ::: ::: ::: ::::: &&&&&&&",
"&&&&&&=& ::::: ::: ::: ::: ::::: &&&&&&&",
"&&&&&&   ::::: ::: ::: ::: :::::   &&&&&",
"&&&&& ::: :::: ::: ::: ::: :::: ::: :&&&",
"&&&& ::::: ::: :::     ::: ::: ::::: :&&",
"&&&& ::::: ::: :  -----  : ::: ::::: &&&",
"&&& ::::::: ::  ---------   : ::: :: &&&",
"&%%& :: :::   --------------  ::: :: &&&",
"&&&& :: ::: ----------------- ::: :: &&&",
"&&&&    ::: ------------------ :: ::  &&",
"&&&  :: ::: ------------------- : ::   &",
"&&& :    : -------------------- :   :: &",
"&&&   :::  --------------------  ::::: &",
"&&& :::::: ----  --------  ---- :::::: &",
"&&&  :     ----  --------  ----    ::: &",
"&&&&   ::: ----  --------  ----  :  :: &",
"&&&& ::::: --@@;;---  ---;;@@--  ::    &",
"&&&& :::::: ---;;-- -- --;;--- :: ::: &&",
"&&&& :::::   --;;--------;;--  ::   : &&",
"&&&&  ::   ::  ;;--------;;  :  ::: : &&",
"&&&&&     ::::              :::  ::   :&",
"&&&&&&&&& :::  :::  XX  :: :::::  ::  &&",
"&&&&&&&& :::: ::: : XX : :   ::::    :&&",
"&&&&&&&&  ::  ::  : XX :  .X :::  &&&&&&",
"&&&&&&&&&        :: XX  X..X  :: &&&&&&&",
"&&&&&&&&&&&& XX..   XXXXX.X &    &&&&&&&",
"&&&&&&&&&&&&& XX.XXXXX   XX &&&&&&&&&&&&",
"&&&&&&&&&&&&&& XX   XX =&  &&&&&&&&&&&&&",
"&&:&:&&&&&&&&&&  &  XX   &&&&&&&&&&&&&&&",
"&&&&&&&&&&&&&&&&= O    $O &&&&&&&&&&&&&&",
"&&&:&&&&&&&&&&& OO$$$$$$$$ &&&&&&&&&&&&&",
"&&&&&&&&&&&&&& O$$$$O$$$O$$ &&&&&&&&&&&&",
"&&&&&&&&&&&oo ##$$$OO$$$$O#$ oo&&&&&&&&&",
"&&&&&&&&%%&o #++$$$O#$$$$+O#$ o&&&&&&&&&",
"&&&&&&&&&&oo   ++$$$  $$$+   ooo&&&&&&&&",
"&&&&&&&&&&&&&oo     oo    oo&&&&&&&&&&&&"
};
