/* XPM */
static char *_5fa7b619d7c41a3e2bc27460cb7cfffvfDGSGQvnAbbxSKq[] = {
/* columns rows colors chars-per-pixel */
"40 40 23 1 ",
"  c black",
". c #722F10",
"X c #7B3413",
"o c #1C7B1C",
"O c #346114",
"+ c #437B1C",
"@ c #575458",
"# c #843F1E",
"$ c #8D3F1B",
"% c #D31313",
"& c #954D2A",
"* c #8F563B",
"= c #39A31D",
"- c #29A529",
"; c #DED737",
": c #E4ED32",
"> c #99E550",
", c #3B61A7",
"< c #847E87",
"1 c #639BFF",
"2 c #ADA7B1",
"3 c #AAC2E2",
"4 c white",
/* pixels */
"----------------------------------------",
"----;-----  ---  --- ---  --;  ---------",
"--;------ 44 -- 4 - 4 - 4 -- 44 --------",
"---;----- 444  444 444 444  444 --------",
"-------- 44444 444 444 444 44444 -------",
"------   44444 444 444 444 44444   -----",
"----- 44 44444 444 444 444 44444 44 ----",
"----- 444 4414 444 444 444@4444 444 4---",
"----- 4444 444 444     444@444 4444 -4--",
"----  4444 444 4  :::::  @@@44 4444   --",
"--- 44 4444 44  ::::::::<242@ 4441 444 -",
"-== 444 444   ::::::::<<<444@@@44 4414 -",
"---- 444 444 :::::::::::<242@ 44 44144 -",
"--  4 444   :::::::::::::<<<::2 4444  --",
"-- 444 444 :::::::::::::::<::<42444 4   ",
"-- 4414    :1:::::::::::::<:<4442  444  ",
"--  444444 ::::::::::::::::::<4244444  -",
"---   4444 ::::4 :::::::: 4:::< 444     ",
"--- 4   44 ::::  ::::::::  ::::     444 ",
"-- 4444    ::::  ::::::::  ::::  444444 ",
"-- 444444  ::%%:::: :: ::::%%::  4444   ",
"-- 4444444  ::::::::  :::::::: 4      --",
"--- 444      ::::::::::::::::  44444 ---",
"----   -   44  ::::::::::::  4  41444 --",
"-------- 44444              444 44414 4-",
"-------- 4144  444  ++  44 44444 4444 --",
"-------- 4444 444 4 ++ 4 4   444  44 4--",
"----- --  44  44  4 ++ 4  O+ 444     ---",
"---- 3 --        44 ++  +OO+  4  -------",
"--- 331 ---- ++OO 4 +++++O+ -   --------",
"--- 311 ----- ++O+++++   ++ -----  -----",
"--- 11, ------ ++   ++ >-  ----- 31 ----",
"--4-   --------  -  ++   ------- 1, ----",
"------------1---  X    &1 --1----  -----",
"---4----------- XX&&&&&1&& -------------",
"---------1---- $X&&&$&&&$&& ------------",
"-----------oo &&1&&$$&&&&XX* oo---------",
"--------==-o &..&&&$&&&&&#XX* o---------",
"----------oo   ..&&&  &&&#   ooo--------",
"-------------oo     oo    oo------------"
};
