/* XPM */
static char *_834ce824963487df7ec03e831dd72600bktxYSl3jCdJkba[] = {
/* columns rows colors chars-per-pixel */
"40 40 9 1 ",
"  c black",
". c #39A31D",
"X c #29A529",
"o c #DED737",
"O c #99E550",
"+ c #3B61A7",
"@ c #639BFF",
"# c #AAC2E2",
"$ c white",
/* pixels */
"XXXXXXXXXXXXXXXXXXXXXXXXXXXXXXXXXXXXXXXX",
"XXXXoXXXXXXXXXXXXXXXXXXXXXXXoXXXXXXXXXXX",
"XXoXXXXXXXXXXXXXXXXXX$XXXXXXXXoXXXXXXXXX",
"XXXoXXXXXXXXXXXXXXXX$XXXXXXoXXXXXXXXXXXX",
"XXXXXXXXXOXXXXXXXXXXXX$XXXXXXXXXXXXXXXXX",
"XXXXXXOXXOXXOXXXXXXXXXXXXXXXXXXXXXXXXXXX",
"XXXXXXXOXOXOXX  ....XXXXXXXXXXXXXXXXXXXX",
"XXXXXXXXOOOXXO  XXXXXXXXXXXXXXXXXXXX$XXX",
"XXXXXXXXXXXX  @@  XXXXXXXXXXXXXXXXX$X$XX",
"XXXXXXXXXXXX  @@  XXXXXXXXXXXXXXXXXXXXXX",
"XXXXXXXXXXXX  @@  XXXXXXXXXXXXXXXXXXXXXX",
"X..XXXXXXX  @@##@@@  XXXXXXXXXXXXXXXXXXX",
"XXXXXXXXXX  @@##@@@  XXXXXXXXXXXXXXXXXXX",
"XXXXXXXXXX  ##@@@@@  XXXXXXXXXXXXXXXXXXX",
"XXXXXXXXXX  ##@@@@@  XXXXXXXXXXXXXXXXXXX",
"XXXXXXXX  @@@@@@@@@@@  XXXXXXXOXXXXXXXXX",
"XXXXXXXX  @@@@@@@@@@@  XXXXOXXOXXOXXXXXX",
"XXXXXXOX  @@@@@@@@+++  XXXXXOXOXOXXXXXXX",
"XXXOXXOX  @@@@@@@@+++  XXXXOOOOOOOXXXXXX",
"XXXXOXOX  @@@@@@+++++  XXXXXXXXXXXXXXXXX",
"XXXXXOOO  @@@@@@+++++  XXXXXXXXXXXXXXXXX",
"XXXXXXXXXX  ++++++   X$XXXX  XXXXXXXXXXX",
"XXXXXXXXXX  ++++++   $XXXXX  XXXXXXXXXXX",
"XXXXXXXXXXXX      XXXX$XX  ##  XX..XXXXX",
"XXXXXXXXXXXX      XXXXXXX  ##  XXXXXXX$X",
"XXXXXXXXXXXXXXXXXXXXXXX   ###@   XXX$XXX",
"XXXXXXXXXXXXXXXXXXXXXXX   ###@   XXXX$XX",
"XXXXXXXXXXXXXXXXXXXXXXX  ##@@@@  XXXXXXX",
"XXXXXXXXXXXXXXXXXXXXXXX  ##@@@@  XXXXXXX",
"XXXXXXXXXXXXXXXXXXXXXXX  @@@@++  XXXXXXX",
"XXXXXXXXXXXXXXXXXXXXOXX  @@@@++  XXXXXXX",
"XXXXXXXXXXXXXXXXXOXXOXX  @@@@++  XXXXXXX",
"XX$X$XXXXXXXXXXOXXOXOXOXX      XXXXXXXXX",
"XXXXXXXXXXXXXXXXOXXOOOOOX      XXXXXXXXX",
"XXX$XXXXXXXXXXXXXXXXXXXXXXXXXXXXXXXXXXXX",
"XXXXXXXXXXXXXXXXXXXXXXXXXXXXXXXXXXXXXXXX",
"XXXXXXXXXXXXXXXXXXXXXXXXXXXXXXXXXXXXXXXX",
"XXXXXXXX..XXXXXXXXXXXXXXXXX...XXXXXXXXXX",
"XXXXXXXXXXXXXXXXXXXXXXXXXXXXXXXXXXXXXXXX",
"XXXXXXXXXXXXXXXXXXXXXXXXXXXXXXXXXXXXXXXX"
};
