/* XPM */
static char *_90bcda2124e4d8af91918a82de64ce6hBWy2BKdCuzwaaTf[] = {
/* columns rows colors chars-per-pixel */
"40 40 9 1 ",
"  c black",
". c #39A31D",
"X c #29A529",
"o c #DED737",
"O c #99E550",
"+ c #3B61A7",
"@ c #639BFF",
"# c #AAC2E2",
"$ c white",
/* pixels */
"XXXXXXXXXXXXXXXXXXXXXXXXXXXXXXXXXXXXXXXX",
"XXXXoXXXXXXXXXXXXXXXXXXXXXXXoXXXXXXXXXXX",
"XXoXXXXXXXXXXXXXXXXXX$XXXXXXXXoXXXXXXXXX",
"XXXoXXXXXXXXXXXXXXXX$XXXXXXoXXXXXXXXXXXX",
"XXXXXXXXXOXXXXXXXXXXXX$XXXXXXXXXXXXXXXXX",
"XXXXXXOXXOXXOXXXXXXXXXXXXXXXXXXXXXXXXXXX",
"XXXXXXXOXOXOXXOX....XXXXXXXXXXXXXXXXXXXX",
"XXXXXXXXOOOXXOXXXXXXXXXXXXXXXXXXXXXX$XXX",
"XXXXXXXXXXXXXXXXXXXXXXXXXXXXXXXXXXX$X$XX",
"XXXXXXXXXXXXXXXXXXXXXXXXXXXXXXXXXXXXXXXX",
"XXXXXXXXXXXXXXXXXXXXXXXXXXXXXXXXXXXXXXXX",
"X..XXXXXXXXXXXXXXXXXXXXXXXXXXXXXXXXXXXXX",
"XXXXXXXXXXXXXXXXXXXXXXXXXXXXXXXXXXXXXXXX",
"XXXXXXXXXXXXXXXXXXXXXXXXXXXXXXXXXXXXXXXX",
"XXXXXXXXXXXXXXXXX XXXXXXXXXXXXXXXXXXXXXX",
"XXXXXXXXXXXXXXXX @ XXXXXXXXXXXOXXXXXXXXX",
"XXXXXXXXXXXXXXX @#@ XXXXXXXOXXOXXOXXXXXX",
"XXXXXXOXXXXXXXX #@@ XXXXXXXXOXOXOXXXXXXX",
"XXXOXXOXXOXXXX @@@@@ XXXXXXOOOOOOOXXXXXX",
"XXXXOXOXOXXXXX @@@@+ XXXXXXXXXXXXXXXXXXX",
"XXXXXOOOOOXXXX @@@++ XXXXXXXXXXXXXXXXXXX",
"XXXXXXXXXXXXXXX +++ XXX XXXXXXXXXXXXXXXX",
"XXXXXXXXXXXXXXXX   XXX # XXXXXXXXXXXXXXX",
"XXXXXXXXXXXXXXXXXXXXX ##@ XXXXXXX..XXXXX",
"XXXXXXXXXXXXXXXXXXXXX #@@ XXXXXXXXXXXX$X",
"XXXXXXXXXXXXXXXXXXXXX @@+ XXXXXXXXXX$XXX",
"XXXXXXXXXXXXXXXXXXXXXX   XXXXXXXXXXXX$XX",
"XXXXXXXXXXXXXXXXXXXXXXXXXXXXXXXXXXXXXXXX",
"XXXXXXXXXXXXXXXXXXXXXXXXXXXXXXXXXXXXXXXX",
"XXXXXXXXXXXXXXXXXXXXXXXXXXXXXXXXXXXXXXXX",
"XXXXXXXXXXXXXXXXXXXXOXXXXXXXXXXXXXXXXXXX",
"XXXXXXXXXXXXXXXXXOXXOXXOXXXXXXXXXXXXXXXX",
"XX$X$XXXXXXXXXXOXXOXOXOXXXXXXXXXXXXXXXXX",
"XXXXXXXXXXXXXXXXOXXOOOOOXXXXXXXXXXXXXXXX",
"XXX$XXXXXXXXXXXXXXXXXXXXXXXXXXXXXXXXXXXX",
"XXXXXXXXXXXXXXXXXXXXXXXXXXXXXXXXXXXXXXXX",
"XXXXXXXXXXXXXXXXXXXXXXXXXXXXXXXXXXXXXXXX",
"XXXXXXXX..XXXXXXXXXXXXXXXXX...XXXXXXXXXX",
"XXXXXXXXXXXXXXXXXXXXXXXXXXXXXXXXXXXXXXXX",
"XXXXXXXXXXXXXXXXXXXXXXXXXXXXXXXXXXXXXXXX"
};
