/* XPM */
static char *_e55fe1584c044c6b3572fda55679142Xm3VrKowNcr6NFOo[] = {
/* columns rows colors chars-per-pixel */
"80 40 40 1 ",
"  c black",
". c #041A06",
"X c #092C0C",
"o c #0C2C0C",
"O c #0F3E0F",
"+ c #761919",
"@ c #0E4F15",
"# c #136A1C",
"$ c #137B13",
"% c #187218",
"& c #1E721E",
"* c #327214",
"= c #9E0E1D",
"- c #951220",
"; c #8D2525",
": c #9E2121",
"> c #AC3232",
", c #A73B3B",
"< c #A73E3E",
"1 c #B03E3E",
"2 c #C11426",
"3 c #C13D3D",
"4 c #B04141",
"5 c #C14747",
"6 c #D34343",
"7 c #D34A4A",
"8 c #DC4D4D",
"9 c #EB5F5F",
"0 c #1C841C",
"q c #349E03",
"w c #3D8D19",
"e c #39A31D",
"r c #259525",
"t c #219E21",
"y c #29A529",
"u c #41951A",
"i c #4DB01F",
"p c #DED737",
"a c #99E550",
"s c white",
/* pixels */
"yyyyyyyyyyyyyyyyyyyyyyyyyyyyyyyyyyyyyyyyyyyyyyyyyyyyyyyyyyyyyyyyyyyyyyyyyyyyyyyy",
"yyyypyyyaaayyayyyyyyyyyyyyyyyyyyyyyysyyyyyyyyyyyaaayyayyyyyyyyyyyyyyyyyyyyyysyyy",
"yypyyyyyyyyyyyyyyyyyyyyyyyyyyyysyyysyyyyyyyyyyyyyyyyyyyyyyyyyyyyyyyyyyyyyyysyyyy",
"yyyy                                                                      yyyyyy",
"yyyy ++++++++++++++++++++++++++++++++++++++++++++++++++++++++++++++++++++ yyyyyy",
"yyyy +444444777777777777777777777777777777777777777777777777777777777777+ yyyyyy",
"yyyy +777777777777777777777777777777777777777777777777777777777737777777+ yyyyyy",
"yyyy +777777777776666777717777777777778888887888887777777777777777777777+ yyyyyy",
"yyyy +7777777,7777777777777777777777777777778877777777377777777778887777+ yyysyy",
"yyyy +777777777777777777666667777777777777777777777777777777777777777757+ yyyyyy",
"yyyy +777757777778888888886666667767777777777777777777777777778887777777+ yyyyyy",
"yeey +777777777777777777777777777777777777777777777777777777777777777777+ yyyyyy",
"yyyy +333333333333333333333333333333333333333333333333333333333333333333+ yyyyyy",
"yyyy +777777777777777777777777777777777777777777777777777777777777777777+ yyyyyy",
"yyyy +777777777777777777777777777777777777777777888888887777777777777777+ yyyyyy",
"yyyy +777777777777777773777777777777777777777777777777777777766777777777+ yyyyyy",
"yyyy +777177775777777777788887777777777777777777777777777766667771777777+  yyyyy",
"y    +7777777777777888888877777777777777777777777771777777777777777757,7+ i    y",
" 000 +777777777777777777777777777777777777777777777777777777777777777777+ iiii  ",
"$ 00 +333333333333333333333333333333333333333333333333333333333333333333+ iiiiii",
"$ 00 +777777777777777777777777777777777777777777777777777777777777777777+ =2iiqi",
"0$=- +7777777773777778888888888877888888877777777777777777777777,7666777+ =2iqii",
"00=- +777776666667777877777777777777777788777777777777776666667666677777+ iiiiii",
"0000 +775777777777777777777777777777777777777777777778888878766666677777+ iiii2i",
"0000 +777777777777777777777777777777777777777777777777777777777777<<<<<<+ iiiwwi",
"00+0 +++++++++;;;;+++++++++++++++++++++++++++++++++++++++;;;;;+++++++++++ iiw+uw",
"0+>+          ;77;                                       ;77;             iw:9+*",
" +>+oo....... 7774 ..................................... ;774 ..........XOOO:7+ ",
"777: OO......+7774+....................XXXXXXXXXXX......+7774+.......XXXOOOO:777",
"777: OOOOOOoo+7774+XXXXXXXXXXXXX...XXXXXXXXXXX..........+7774+..XXXXXXXOOOOO:777",
">>>:  oOOOOOo+7774+@@@@@@@@@@@@@@@@@@@@@@@@@@@@@@@@@@@@@+7774+.XXXXXXXXXOOO :>>>",
" +>+    OOOoo >777 #rrrrrrrrrrrrrrrrrrrrrrrrrrrrrrrrrrr& 777> OOXXXXXX      +>+ ",
"&+++%yyyytrr& 4474 &rrrrrrrrrrrrrryyyyyyyyyyyyyyyyyyrrr& 4444 &rrrryyyyyyyy*+++&",
"yyyyyyyyyyyyr&&&&&&rryyyyyyyyyyyyyyyyyyyyyyyyyyyyyyyyyyr&&&&&rryyyyyyyyyyyyyyyyy",
"yyyyyyyyyyyyyyyyyyyyyyyyyyyyyyyyyyyyyyyyyyyyyyyyyyyyyyyyyyyyyyyyyyyyyyyyyyyyyyyy",
"yyyyyyayyyyyyyyyyyyyyyyyyyyysyyyyyyyyyyyyyyyyyayyyyyyyyyyyyyyyyyyyyysyyyyyyyyyyy",
"yyyayaayyyyyyyyyyyyyyyyyyyyyyyyyyyyyyyyyyyyayaayyyyyyyyyyyyyyyyyyyyyyyyyyyyyyyyy",
"yyyyaaaaeeyyyyyyyyyyyyyyyyysesyyyyyyyyyyyyyyaaaaeeyyyyyyyyyyyyyyyyysesyyyyyyyyyy",
"yyyyyyyyyyyyyyyyyyyyyyyyyyyyyyyyyyyyyyyyyyyyyyyyyyyyyyyyyyyyyyyyyyyyyyyyyyyyyyyy",
"yyyyyyyyyyyyyyyyyyyyyyyyyyyyyyyyyyyyyyyyyyyyyyyyyyyyyyyyyyyyyyyyyyyyyyyyyyyyyyyy"
};
